<?xml version="1.0" encoding="utf-8"?>

<svg xmlns="http://www.w3.org/2000/svg"
	 viewBox="0 0 960 960">
<path fill="#fff" d="M737.6,533.2C677.7,434.8,617,346.9,606,330.9V78h28.1c5.5,0,9.9-4.6,9.9-10.1v-38c0-5.5-4.4-9.9-9.9-9.9
	H329.9c-5.5,0-9.9,4.4-9.9,9.9v38c0,5.5,4.4,10.1,9.9,10.1H358v252.9c-11,16-71.7,103.9-131.6,202.3
	C137.1,679.8,91.9,779.1,91.9,828.2c0,64,34,94.3,62.5,108.6c30.3,15.1,60.2,15.2,61.5,15.2h532.2c1.3,0,31.2,0,61.5-15.2
	c28.5-14.3,62.5-44.6,62.5-108.7C872.1,779,826.9,679.8,737.6,533.2z M748,894H215.9c-4.9,0-22.3-0.6-37.8-9.4
	c-18.7-10.7-28.2-29.6-28.2-56.4c0-68.3,150.5-313.9,257.4-466.6l6.9-9.9c1.2-1.7,1.8-3.7,1.8-5.7V78h132v268c0,2,0.6,4,1.8,5.7
	l6.9,9.9c106.9,152.7,257.4,398.2,257.4,466.5C814.1,886.6,768,894,748,894z"/>
<path fill="none" d="M1446.9,380.9l-6.9-9.9v-12V93h-152v266v12l-6.9,9.9c-19.1,27.3-40.4,58.7-62.3,92.1h290.4
	C1487.3,439.6,1466,408.2,1446.9,380.9z"/>
<path fill="#43A047" d="M733.1,683.6C701.2,624.5,657.8,552.3,610,479H352c-47.8,73.3-91.2,145.5-123.1,204.6
	c-54.2,100.7-60.1,135.3-60.1,145.5c0,25.7,10.3,34.6,18.1,39c11.5,6.6,25.3,6.9,27.9,6.9h532.2c8.1,0,20-2,29-7.5
	c7.3-4.5,17.1-13.3,17.1-38.4C793.1,818.9,787.3,784.3,733.1,683.6z M320.8,799.3c-16,0-28.9-12.9-28.9-28.9
	c0-15.9,12.9-28.9,28.9-28.9c16,0,28.9,13,28.9,28.9C349.7,786.4,336.8,799.3,320.8,799.3z M407.5,712.6
	c-31.9,0-57.8-25.8-57.8-57.8s25.9-57.8,57.8-57.8c31.9,0,57.8,25.8,57.8,57.8S439.4,712.6,407.5,712.6z M523.1,828.2
	c-31.9,0-57.8-25.8-57.8-57.8s25.9-57.8,57.8-57.8c31.9,0,57.8,25.8,57.8,57.8S555,828.2,523.1,828.2z"/>
</svg>
